<svg xmlns="http://www.w3.org/2000/svg" viewBox="0 0 505.96 122.46"><defs><style>.cls-1,.cls-2,.cls-3,.cls-4{fill:none;}.cls-1,.cls-3,.cls-4,.cls-5{stroke:#e9eef7;}.cls-1,.cls-2,.cls-3,.cls-4,.cls-5{stroke-miterlimit:10;}.cls-1{stroke-width:1.5px;}.cls-2{stroke:#a7b3cb;}.cls-3{stroke-width:1.2px;}.cls-4{stroke-width:1.3px;}.cls-5{fill:#a7b3cb;}</style></defs><g><g><path class="cls-1" d="M460.7,6.45,413,39.64"/><path class="cls-2" d="M416.21,72.13,452,30.19"/><path class="cls-2" d="M460.76,6.6l-8.88,23.66"/><path class="cls-2" d="M451.88,30.26,499.5,46.87"/><path class="cls-1" d="M491.43,104.94l-5.35-63"/><path class="cls-1" d="M476.74,78.8,435,116.31"/><path class="cls-1" d="M387.44,80l59.22,26"/><path class="cls-3" d="M414.49,73.35q-4.33-24.51-8.68-49"/><line class="cls-2" x1="387.44" y1="79.98" x2="416.14" y2="72.85"/><line class="cls-2" x1="477.6" y1="78.79" x2="416.14" y2="72.85"/><path class="cls-4" d="M460.63,6.2q19.49,20.34,38.95,40.69-4,29.08-8,58.18l-56.92,10.69L387,80.14Q396.24,52,405.45,23.93Z"/><path class="cls-5" d="M14.47,50.19H.5v-5h34v5H20.47v40.9h-6Z"/><path class="cls-5" d="M63.42,69.55H45.56V86.11H65.47v5H39.63V45.15H64.44v5H45.56V64.64H63.42Z"/><path class="cls-5" d="M73.17,91.09V45.15h6.47L94.37,68.39a130.34,130.34,0,0,1,8.25,14.93l.13-.07c-.54-6.13-.68-11.72-.68-18.88V45.15h5.59V91.09h-6L87.07,67.78a146.35,146.35,0,0,1-8.59-15.34l-.2.07c.34,5.79.48,11.31.48,18.95V91.09Z"/><path class="cls-5" d="M117.2,83.87a21.1,21.1,0,0,0,10.64,3c6.07,0,9.61-3.21,9.61-7.84,0-4.3-2.45-6.75-8.66-9.14-7.5-2.66-12.13-6.54-12.13-13,0-7.16,5.93-12.47,14.86-12.47a20.9,20.9,0,0,1,10.16,2.25L140,51.49a18.27,18.27,0,0,0-8.73-2.19c-6.27,0-8.65,3.75-8.65,6.89,0,4.29,2.79,6.41,9.13,8.86,7.77,3,11.73,6.75,11.73,13.5,0,7.09-5.25,13.22-16.09,13.22-4.43,0-9.27-1.29-11.73-2.93Z"/><path class="cls-5" d="M175.42,69.55H157.56V86.11h19.91v5H151.63V45.15h24.81v5H157.56V64.64h17.86Z"/><path class="cls-5" d="M220.14,89.05A43,43,0,0,1,206,91.57c-7,0-12.68-1.77-17.18-6.07-3.95-3.82-6.41-10-6.41-17.11.07-13.7,9.48-23.72,24.88-23.72a28.54,28.54,0,0,1,11.46,2.11l-1.44,4.84a23.81,23.81,0,0,0-10.15-2c-11.18,0-18.48,7-18.48,18.47s7,18.54,17.73,18.54c3.88,0,6.54-.55,7.9-1.23V71.73H205V67h15.13Z"/><path class="cls-5" d="M229.21,45.76a62.07,62.07,0,0,1,11.38-.95c6.34,0,10.43,1.15,13.29,3.74a11.46,11.46,0,0,1,3.62,8.73c0,6.07-3.82,10.09-8.66,11.72v.21c3.54,1.23,5.66,4.5,6.75,9.27,1.5,6.41,2.59,10.84,3.54,12.61H253c-.75-1.29-1.78-5.25-3.07-11-1.36-6.34-3.82-8.73-9.2-8.93h-5.59v19.9h-5.93Zm5.93,20.93h6.06c6.34,0,10.37-3.48,10.37-8.73,0-5.93-4.3-8.52-10.57-8.59a24.43,24.43,0,0,0-5.86.55Z"/><path class="cls-5" d="M271.81,45.15V91.09h-5.93V45.15Z"/><path class="cls-5" d="M290.9,50.19h-14v-5h34v5h-14v40.9h-6Z"/><path class="cls-5" d="M328.19,91.09V71.6L313.67,45.15h6.75l6.47,12.68c1.77,3.47,3.14,6.27,4.57,9.47h.14c1.29-3,2.86-6,4.63-9.47l6.61-12.68h6.75l-15.4,26.38V91.09Z"/><polygon class="cls-5" points="492.76 103.64 488.78 105.66 451.58 30.29 452.19 30 492.76 103.64"/><polygon class="cls-5" points="388.26 76.74 387.59 79 389.91 81 476.58 79.19 476.21 78.61 388.26 76.74"/><path class="cls-5" d="M456.87,7.41l3.71-.91L462.17,8,416.72,73.12l-.68.12-.39-.95Z"/><polygon class="cls-5" points="416.18 36.68 413.89 38.46 415.35 40.8 500.08 46.52 499.29 45.22 416.18 36.68"/><path class="cls-5" d="M484.17,42.15,487.86,44l-52.7,72.57-1-.71Z"/><polygon class="cls-5" points="447.4 104.77 446.28 105.89 443.57 104.7 405.61 24.5 406.62 23.87 447.4 104.77"/><circle class="cls-5" cx="460.03" cy="6.87" r="6.37"/><circle class="cls-5" cx="415.65" cy="38.57" r="4.98"/><circle class="cls-5" cx="484.55" cy="43.57" r="4.98"/><circle class="cls-5" cx="444.49" cy="101.44" r="5.02"/><circle class="cls-5" cx="475.74" cy="78.61" r="5.1"/><circle class="cls-5" cx="415.65" cy="72.81" r="4.92"/><circle class="cls-5" cx="453.19" cy="31.09" r="4.85"/><circle class="cls-5" cx="499.1" cy="46.24" r="6.37"/><circle class="cls-5" cx="489.42" cy="102.89" r="6.37"/><circle class="cls-5" cx="434.72" cy="115.59" r="6.37"/><circle class="cls-5" cx="389.34" cy="79.25" r="6.37"/><circle class="cls-5" cx="405.66" cy="24.05" r="6.37"/></g></g></svg>